<svg id="Capa_1" data-name="Capa 1" xmlns="http://www.w3.org/2000/svg" viewBox="0 0 384 292.5"><defs><style>.cls-1{fill:#fff;}</style></defs><path class="cls-1" d="M350.24,51H33.74a33.41,33.41,0,0,0-14.45,3.38l172,172,38.55-37h0L364.71,54.39A33.33,33.33,0,0,0,350.24,51Z" transform="translate(0.01 -51)"/><path class="cls-1" d="M380.62,70.3l-127,127,127,127A33.28,33.28,0,0,0,384,309.75v-225A33.37,33.37,0,0,0,380.62,70.3Z" transform="translate(0.01 -51)"/><path class="cls-1" d="M3.38,70.29A33.28,33.28,0,0,0,0,84.75v225a33.45,33.45,0,0,0,3.38,14.46l127-127Z" transform="translate(0.01 -51)"/><path class="cls-1" d="M237.75,213.16l-38.55,37a11.24,11.24,0,0,1-15.91,0l-37-37-127,127a33.32,33.32,0,0,0,14.46,3.39h316.5a33.42,33.42,0,0,0,14.46-3.38Z" transform="translate(0.01 -51)"/></svg>