<svg id="Capa_1" enable-background="new 0 0 512 512" height="512" viewBox="0 0 512 512" width="512" xmlns="http://www.w3.org/2000/svg"><g><path d="m183.195 243.952-137.885-137.886 74.246-74.246 21.213 21.213-53.033 53.033 116.673 116.673z" fill="#537983"/><path d="m55.916 265.165-21.213-21.213 53.033-53.033 74.246 74.246-21.213 21.213-53.033-53.033z" fill="#537983"/><path d="m405.934 466.69-137.886-137.885 21.213-21.214 116.673 116.673 53.033-53.033 21.213 21.213z" fill="#3e5959"/><path d="m268.048 477.297-21.213-21.213 31.82-31.82-53.033-53.033 21.213-21.213 74.246 74.246z" fill="#3e5959"/><path d="m115.162-2.574h30v90h-30z" fill="#64e1dc" transform="matrix(.707 -.707 .707 .707 8.124 104.465)"/><path d="m30.31 209.558h30v90h-30z" fill="#64e1dc" transform="matrix(.707 -.707 .707 .707 -166.729 106.597)"/><path d="m454.574 336.838h30v90h-30z" fill="#00c8c8" transform="matrix(.707 -.707 .707 .707 -132.465 443.876)"/><path d="m242.442 421.69h30v90h-30z" fill="#00c8c8" transform="matrix(.707 -.707 .707 .707 -254.597 318.729)"/><g><path d="m458.899 53.099c-64.199-64.499-168.9-64.499-233.399 0-43.8 43.8-59.101 108.601-39.9 167.4l-185.6 184.701v106.8h114.901v-43.2h42.099v-42.8h44.799v-44.101h33.602l56.1-55.499c58.799 19.199 123.6 3.9 167.399-39.901 64.5-64.5 64.5-169.2-.001-233.4zm-42.299 105.901c-17.701 17.701-46.199 17.701-63.6 0-17.701-17.401-17.701-45.901 0-63.6 17.401-17.401 45.899-17.401 63.6 0 17.401 17.699 17.401 46.199 0 63.6z" fill="#fdbf00"/></g><path d="m458.899 286.5c-43.798 43.8-108.599 59.099-167.398 39.9l-56.1 55.499h-33.602v44.101h-44.799v42.8h-42.099v43.2h-114.901l353-353c17.401 17.701 45.899 17.701 63.6 0 17.401-17.401 17.401-45.901 0-63.6l42.299-42.301c64.501 64.2 64.501 168.9 0 233.401z" fill="#ff9100"/></g></svg>